<svg xmlns="http://www.w3.org/2000/svg" width="72" height="100" viewBox="0 0 72 100" fill="none">
  <g clip-path="url(#clip0_11_37)">
    <path d="M35.9194 99.3481L7.1756 91.3686L0.770035 19.5243H71.1548L64.7426 91.3575L35.9194 99.3481Z" fill="#264DE4"/>
    <path d="M59.2531 86.7834L64.7324 25.3985H35.9624V93.2403L59.2531 86.7834Z" fill="#2965F1"/>
    <path d="M15.4545 52.0446L16.2442 60.856H35.9624V52.0446H15.4545ZM13.8676 34.2101L14.6685 43.0216H35.9624V34.2101H13.8676ZM35.9624 74.9288L35.9238 74.939L26.1106 72.2893L25.4832 65.2618H16.6379L17.8723 79.0971L35.9219 84.1074L35.9624 84.0964V74.9288Z" fill="#EBEBEB"/>
    <path d="M17.3348 0H28.0066V4.46295H21.7977V8.92591H28.0071V13.3886H17.3348V0ZM30.1412 0H40.8133V3.8808H34.6042V4.65691H40.8133V13.5828H30.1415V9.5075H36.3506V8.73139H30.1409L30.1412 0ZM42.9479 0H53.62V3.8808H47.4109V4.65691H53.62V13.5828H42.9479V9.5075H49.157V8.73139H42.9482L42.9479 0Z" fill="black"/>
    <path d="M56.4141 52.0446L58.0046 34.2101H35.9321V43.0216H48.3481L47.5464 52.0446H35.9321V60.856H46.7824L45.7594 72.2837L35.9318 74.9362V84.1033L53.9958 79.0971L54.1282 77.6083L56.1991 54.4107L56.4141 52.0446Z" fill="white"/>
  </g>
  <defs>
    <clipPath id="clip0_11_37">
      <rect width="70.6303" height="99.5998" fill="white" transform="translate(0.647278)"/>
    </clipPath>
  </defs>
</svg>