<svg xmlns="http://www.w3.org/2000/svg" width="65" height="97" viewBox="0 0 65 97" fill="none">
  <g clip-path="url(#clip0_11_46)">
    <path d="M16.6675 96.7103C25.5097 96.7103 32.6859 89.5341 32.6859 80.6919V64.6735H16.6675C7.82533 64.6735 0.649071 71.8497 0.649071 80.6919C0.649071 89.5341 7.82533 96.7103 16.6675 96.7103Z" fill="#0ACF83"/>
    <path d="M0.649071 48.655C0.649071 39.8129 7.82533 32.6366 16.6675 32.6366H32.6859V64.6735H16.6675C7.82533 64.6735 0.649071 57.4972 0.649071 48.655Z" fill="#A259FF"/>
    <path d="M0.649086 16.6182C0.649086 7.77599 7.82534 0.599731 16.6675 0.599731H32.686V32.6366H16.6675C7.82534 32.6366 0.649086 25.4603 0.649086 16.6182Z" fill="#F24E1E"/>
    <path d="M32.686 0.599731H48.7044C57.5466 0.599731 64.7228 7.77599 64.7228 16.6182C64.7228 25.4603 57.5466 32.6366 48.7044 32.6366H32.686V0.599731Z" fill="#FF7262"/>
    <path d="M64.7228 48.655C64.7228 57.4972 57.5466 64.6735 48.7044 64.6735C39.8622 64.6735 32.686 57.4972 32.686 48.655C32.686 39.8129 39.8622 32.6366 48.7044 32.6366C57.5466 32.6366 64.7228 39.8129 64.7228 48.655Z" fill="#1ABCFE"/>
  </g>
  <defs>
    <clipPath id="clip0_11_46">
      <rect width="64.0737" height="96.1106" fill="white" transform="translate(0.649086 0.599731)"/>
    </clipPath>
  </defs>
</svg>