<svg xmlns="http://www.w3.org/2000/svg" width="49" height="49" viewBox="0 0 49 49" fill="none">
  <path d="M24.5 4.08333C21.8189 4.08333 19.164 4.61142 16.6869 5.63745C14.2098 6.66349 11.9591 8.16737 10.0632 10.0632C6.23438 13.8921 4.08334 19.0852 4.08334 24.5C4.08334 33.5242 9.94293 41.1804 18.0483 43.8958C19.0692 44.0592 19.3958 43.4262 19.3958 42.875V39.4246C13.7404 40.6496 12.5358 36.6887 12.5358 36.6887C11.5967 34.3204 10.2696 33.6875 10.2696 33.6875C8.41168 32.4217 10.4125 32.4625 10.4125 32.4625C12.4542 32.6054 13.5363 34.5654 13.5363 34.5654C15.3125 37.6687 18.3138 36.75 19.4775 36.26C19.6613 34.9329 20.1921 34.0346 20.7638 33.5242C16.2313 33.0137 11.4742 31.2579 11.4742 23.4792C11.4742 21.2129 12.25 19.3958 13.5771 17.9462C13.3729 17.4358 12.6583 15.3125 13.7813 12.5562C13.7813 12.5562 15.4963 12.005 19.3958 14.6387C21.0088 14.1896 22.7646 13.965 24.5 13.965C26.2354 13.965 27.9913 14.1896 29.6042 14.6387C33.5038 12.005 35.2188 12.5562 35.2188 12.5562C36.3417 15.3125 35.6271 17.4358 35.4229 17.9462C36.75 19.3958 37.5258 21.2129 37.5258 23.4792C37.5258 31.2783 32.7483 32.9933 28.1954 33.5037C28.9304 34.1367 29.6042 35.3821 29.6042 37.2808V42.875C29.6042 43.4262 29.9308 44.0796 30.9721 43.8958C39.0775 41.16 44.9167 33.5242 44.9167 24.5C44.9167 21.8188 44.3886 19.1639 43.3625 16.6869C42.3365 14.2098 40.8326 11.9591 38.9368 10.0632C37.0409 8.16737 34.7902 6.66349 32.3131 5.63745C29.8361 4.61142 27.1812 4.08333 24.5 4.08333Z" fill="#0072C3"/>
</svg>