<svg xmlns="http://www.w3.org/2000/svg" width="39" height="38" viewBox="0 0 39 38" fill="none">
  <path d="M19.9867 3.1665C17.9077 3.1665 15.8491 3.57599 13.9284 4.37157C12.0076 5.16716 10.2624 6.33327 8.79237 7.80333C5.82346 10.7722 4.15555 14.7989 4.15555 18.9976C4.15555 25.995 8.69908 31.9316 14.984 34.0372C15.7756 34.1638 16.0289 33.673 16.0289 33.2456V30.5701C11.6437 31.52 10.7096 28.4488 10.7096 28.4488C9.98139 26.6124 8.95237 26.1216 8.95237 26.1216C7.51174 25.1401 9.06319 25.1717 9.06319 25.1717C10.6463 25.2826 11.4853 26.8023 11.4853 26.8023C12.8627 29.2087 15.1898 28.4963 16.0922 28.1163C16.2347 27.0873 16.6463 26.3907 17.0896 25.995C13.5751 25.5992 9.88641 24.2377 9.88641 18.2061C9.88641 16.4488 10.488 15.0398 11.517 13.9158C11.3587 13.52 10.8046 11.8736 11.6753 9.73641C11.6753 9.73641 13.0051 9.30897 16.0289 11.3512C17.2795 11.0029 18.641 10.8288 19.9867 10.8288C21.3323 10.8288 22.6938 11.0029 23.9444 11.3512C26.9682 9.30897 28.298 9.73641 28.298 9.73641C29.1687 11.8736 28.6146 13.52 28.4563 13.9158C29.4853 15.0398 30.0869 16.4488 30.0869 18.2061C30.0869 24.2535 26.3824 25.5833 22.8521 25.9791C23.422 26.4699 23.9444 27.4356 23.9444 28.9079V33.2456C23.9444 33.673 24.1977 34.1796 25.0051 34.0372C31.2901 31.9158 35.8178 25.995 35.8178 18.9976C35.8178 16.9186 35.4083 14.86 34.6127 12.9393C33.8171 11.0186 32.651 9.27338 31.1809 7.80333C29.7109 6.33327 27.9657 5.16716 26.045 4.37157C24.1242 3.57599 22.0656 3.1665 19.9867 3.1665Z" fill="white"/>
</svg>