<svg xmlns="http://www.w3.org/2000/svg" width="49" height="49" viewBox="0 0 49 49" fill="none">
  <path d="M11.956 13.965C11.7227 13.8392 11.4608 13.7761 11.1959 13.7819C10.931 13.7876 10.672 13.862 10.4445 13.9978C10.2169 14.1336 10.0285 14.3262 9.89763 14.5566C9.76677 14.787 9.69795 15.0475 9.69791 15.3125V34.7083C9.69791 35.1144 9.85923 35.5039 10.1464 35.7911C10.4336 36.0782 10.823 36.2396 11.2292 36.2396C11.6353 36.2396 12.0247 36.0782 12.3119 35.7911C12.5991 35.5039 12.7604 35.1144 12.7604 34.7083V17.8768L23.7732 23.8058C24.2264 24.0508 24.7736 24.0508 25.2268 23.8058L36.2396 17.8768V34.7083C36.2396 35.1144 36.4009 35.5039 36.6881 35.7911C36.9752 36.0782 37.3647 36.2396 37.7708 36.2396C38.1769 36.2396 38.5664 36.0782 38.8536 35.7911C39.1407 35.5039 39.3021 35.1144 39.3021 34.7083V15.3125C39.302 15.0475 39.2332 14.787 39.1023 14.5566C38.9715 14.3262 38.7831 14.1336 38.5555 13.9978C38.3279 13.862 38.069 13.7876 37.8041 13.7819C37.5391 13.7761 37.2772 13.8392 37.044 13.965L24.5 20.7188L11.956 13.965Z" fill="#0072C3"/>
  <path fill-rule="evenodd" clip-rule="evenodd" d="M35.3412 7.59909C28.1281 6.95423 20.8719 6.95423 13.6587 7.59909L10.5595 7.87472C8.94513 8.01888 7.42648 8.70299 6.24881 9.81657C5.07114 10.9301 4.30321 12.4082 4.06904 14.012C3.05214 20.967 3.05214 28.033 4.06904 34.9881C4.30372 36.5918 5.07213 38.0696 6.25017 39.1828C7.42821 40.296 8.9471 40.9796 10.5615 41.1233L13.6567 41.4009C20.872 42.0461 28.128 42.0461 35.3433 41.4009L38.4405 41.1233C40.0546 40.9792 41.573 40.2954 42.7506 39.1822C43.9282 38.069 44.6964 36.5915 44.931 34.9881C45.9479 28.033 45.9479 20.967 44.931 14.012C44.6967 12.4079 43.9285 10.9296 42.7504 9.81597C41.5723 8.70235 40.0532 8.01844 38.4385 7.87472L35.3412 7.59909ZM13.9323 10.6493C20.9648 10.0206 28.0393 10.0206 35.0717 10.6493L38.169 10.927C39.0974 11.0095 39.971 11.4025 40.6486 12.0427C41.3262 12.6828 41.7681 13.5327 41.9032 14.455C42.8772 21.1163 42.8772 27.8838 41.9032 34.545C41.7681 35.4673 41.3262 36.3172 40.6486 36.9573C39.971 37.5975 39.0974 37.9905 38.169 38.073L35.0717 38.3507C28.0402 38.9795 20.9638 38.9795 13.9323 38.3507L10.8351 38.073C9.90663 37.9905 9.03306 37.5975 8.35549 36.9573C7.67792 36.3172 7.23593 35.4673 7.10091 34.545C6.12697 27.8838 6.12697 21.1163 7.10091 14.455C7.23593 13.5327 7.67792 12.6828 8.35549 12.0427C9.03306 11.4025 9.90663 11.0095 10.8351 10.927L13.9323 10.6493Z" fill="#0072C3"/>
</svg>