<svg xmlns="http://www.w3.org/2000/svg" width="38" height="38" viewBox="0 0 38 38" fill="none">
  <path d="M9.26535 10.8288C9.0845 10.7313 8.88142 10.6823 8.67598 10.6868C8.47055 10.6913 8.26979 10.749 8.09333 10.8543C7.91688 10.9596 7.77077 11.1089 7.6693 11.2875C7.56783 11.4662 7.51447 11.6682 7.51443 11.8737V26.9132C7.51443 27.2281 7.63953 27.5301 7.8622 27.7528C8.08486 27.9754 8.38687 28.1005 8.70177 28.1005C9.01667 28.1005 9.31867 27.9754 9.54134 27.7528C9.76401 27.5301 9.8891 27.2281 9.8891 26.9132V13.862L18.4284 18.4594C18.7799 18.6494 19.2041 18.6494 19.5556 18.4594L28.0949 13.862V26.9132C28.0949 27.2281 28.22 27.5301 28.4426 27.7528C28.6653 27.9754 28.9673 28.1005 29.2822 28.1005C29.5971 28.1005 29.8991 27.9754 30.1218 27.7528C30.3444 27.5301 30.4695 27.2281 30.4695 26.9132V11.8737C30.4695 11.6682 30.4161 11.4662 30.3147 11.2875C30.2132 11.1089 30.0671 10.9596 29.8906 10.8543C29.7142 10.749 29.5134 10.6913 29.308 10.6868C29.1026 10.6823 28.8995 10.7313 28.7186 10.8288L18.992 16.0657L9.26535 10.8288Z" fill="white"/>
  <path fill-rule="evenodd" clip-rule="evenodd" d="M27.3983 5.89211C21.8052 5.39208 16.1787 5.39208 10.5857 5.89211L8.1825 6.10583C6.93071 6.21761 5.75315 6.74807 4.83998 7.61154C3.92682 8.47501 3.33136 9.62108 3.14979 10.8647C2.36128 16.2576 2.36128 21.7366 3.14979 27.1295C3.33176 28.3731 3.92759 29.519 4.84104 30.3822C5.7545 31.2453 6.93225 31.7754 8.18408 31.8868L10.5841 32.1021C16.1788 32.6024 21.8052 32.6024 27.3999 32.1021L29.8015 31.8868C31.053 31.7751 32.2304 31.2448 33.1435 30.3817C34.0567 29.5185 34.6523 28.3728 34.8342 27.1295C35.6227 21.7366 35.6227 16.2576 34.8342 10.8647C34.6525 9.62084 34.0568 8.47458 33.1434 7.61108C32.2299 6.74758 31.0519 6.21727 29.7999 6.10583L27.3983 5.89211ZM10.7978 8.25728C16.2508 7.76973 21.7364 7.76973 27.1893 8.25728L29.5909 8.47258C30.3109 8.53652 30.9882 8.8413 31.5136 9.33767C32.039 9.83404 32.3817 10.493 32.4864 11.2082C33.2417 16.3733 33.2417 21.6209 32.4864 26.786C32.3817 27.5012 32.039 28.1602 31.5136 28.6565C30.9882 29.1529 30.3109 29.4577 29.5909 29.5216L27.1893 29.7369C21.7371 30.2245 16.25 30.2245 10.7978 29.7369L8.39622 29.5216C7.67627 29.4577 6.99889 29.1529 6.47351 28.6565C5.94812 28.1602 5.6054 27.5012 5.50071 26.786C4.74551 21.6209 4.74551 16.3733 5.50071 11.2082C5.6054 10.493 5.94812 9.83404 6.47351 9.33767C6.99889 8.8413 7.67627 8.53652 8.39622 8.47258L10.7978 8.25728Z" fill="white"/>
</svg>