<svg xmlns="http://www.w3.org/2000/svg" width="71" height="100" viewBox="0 0 71 100" fill="none">
  <g clip-path="url(#clip0_11_31)">
    <path d="M70.5249 19.6154L64.132 91.2324L35.3955 99.1989L6.73829 91.2434L0.352013 19.6154H70.5249Z" fill="#E44D26"/>
    <path d="M35.4384 93.1095L58.6589 86.672L64.1218 25.4719H35.4384V93.1095Z" fill="#F16529"/>
    <path d="M23.0108 43.042H35.4384V34.2571H13.4101L13.6202 36.6139L15.7795 60.8227H35.4384V52.0378H23.8137L23.0108 43.042ZM24.9907 65.2153H16.172L17.4027 79.0089L35.398 84.0041L35.4384 83.9931V74.8531L35.3999 74.8633L25.6162 72.2216L24.9907 65.2153Z" fill="#EBEBEB"/>
    <path d="M6.88078 0.149902H11.3451V4.56063H15.4291V0.149902H19.8937V13.5067H15.4294V9.03408H11.3454V13.5067H6.88105L6.88078 0.149902ZM25.7643 4.57934H21.8346V0.149902H34.1616V4.57934H30.2295V13.5067H25.7651V4.57934H25.7643ZM36.1179 0.149902H40.7729L43.6363 4.84313L46.497 0.149902H51.154V13.5067H46.7077V6.88634L43.6363 11.6354H43.5593L40.486 6.88634V13.5067H36.1179V0.149902ZM53.3757 0.149902H57.8414V9.09185H64.1196V13.5067H53.3754L53.3757 0.149902Z" fill="black"/>
    <path d="M35.4082 60.8227H46.2258L45.2059 72.2161L35.4079 74.8606V84L53.4175 79.0089L53.5495 77.5246L55.6142 54.3968L55.8285 52.0378H35.4082V60.8227ZM35.4082 43.0205V43.042H56.6278L56.8039 41.0675L57.2044 36.6139L57.4143 34.2571H35.4082V43.0205Z" fill="white"/>
  </g>
  <defs>
    <clipPath id="clip0_11_31">
      <rect width="70.4177" height="99.2999" fill="white" transform="translate(0.229607 0.149902)"/>
    </clipPath>
  </defs>
</svg>