<svg xmlns="http://www.w3.org/2000/svg" width="82" height="82" viewBox="0 0 82 82" fill="none">
  <g clip-path="url(#clip0_11_55)">
    <path d="M33.5056 43.0765C33.5056 43.0765 31.4222 44.2888 34.9907 44.6987C39.3135 45.1922 41.5231 45.1212 46.2861 44.221C46.2861 44.221 47.5415 45.0057 49.2899 45.6858C38.6093 50.2617 25.117 45.4206 33.5056 43.0765ZM32.1994 37.1037C32.1994 37.1037 29.8623 38.835 33.4333 39.2042C38.0517 39.6806 41.6975 39.7199 48.011 38.5044C48.011 38.5044 48.882 39.3901 50.2542 39.8728C37.343 43.65 22.962 40.1704 32.1994 37.1037Z" fill="#0074BD"/>
    <path d="M43.2016 26.9719C45.835 30.003 42.5114 32.7284 42.5114 32.7284C42.5114 32.7284 49.1935 29.2792 46.1249 24.9583C43.2581 20.9305 41.0612 18.9303 52.958 12.0306C52.958 12.0306 34.2827 16.6934 43.2016 26.9719Z" fill="#EA2D2E"/>
    <path d="M57.3277 47.4944C57.3277 47.4944 58.8705 48.7664 55.6288 49.7497C49.465 51.6167 29.9714 52.1801 24.5568 49.8239C22.6118 48.977 26.2614 47.8021 27.409 47.5554C28.6061 47.2959 29.29 47.3435 29.29 47.3435C27.1255 45.819 15.2985 50.3372 23.283 51.6332C45.0579 55.1624 62.975 50.0434 57.3277 47.4944ZM34.5085 30.9152C34.5085 30.9152 24.5936 33.2707 30.9978 34.1271C33.7029 34.4888 39.0914 34.4056 44.1145 33.9844C48.2184 33.6399 52.3369 32.9034 52.3369 32.9034C52.3369 32.9034 50.8911 33.5238 49.8437 34.2382C39.7734 36.8868 20.3235 35.6529 25.9233 32.9453C30.6578 30.6545 34.5085 30.9152 34.5085 30.9152ZM52.2957 40.8562C62.5316 35.5387 57.7984 30.428 54.4951 31.1163C53.6875 31.2851 53.3246 31.431 53.3246 31.431C53.3246 31.431 53.626 30.959 54.1988 30.7566C60.7344 28.4601 65.7594 37.5326 52.0914 41.1258C52.0914 41.1258 52.2481 40.9837 52.2957 40.8562Z" fill="#0074BD"/>
    <path d="M46.1256 0.886841C46.1256 0.886841 51.7939 6.55768 40.7484 15.2762C31.891 22.2716 38.7285 26.2594 40.7446 30.8175C35.5743 26.1522 31.7819 22.0451 34.3259 18.2235C38.0618 12.6142 48.4119 9.89332 46.1256 0.886841Z" fill="#EA2D2E"/>
    <path d="M35.5153 55.2709C45.3383 55.8989 60.4273 54.9213 60.7845 50.2731C60.7845 50.2731 60.0981 52.0348 52.6649 53.433C44.2795 55.0114 33.9357 54.8281 27.8024 53.8156C27.8024 53.8156 29.0585 54.856 35.5153 55.2709Z" fill="#0074BD"/>
    <path d="M60.3309 63.6081H60.0315V63.4406H60.8372V63.6081H60.539V64.4436H60.3303L60.3309 63.6081ZM61.9391 63.6499H61.9353L61.6384 64.4436H61.5014L61.2064 63.6499H61.2032V64.4436H61.0053V63.4406H61.2952L61.5686 64.1505L61.8427 63.4406H62.1307V64.4436H61.9391V63.6499ZM33.9053 73.0326C32.979 73.8358 31.9995 74.2874 31.1196 74.2874C29.8673 74.2874 29.1879 73.5351 29.1879 72.3303C29.1879 71.0267 29.9149 70.0719 32.8281 70.0719H33.9046L33.9053 73.0326ZM36.4625 75.9178V66.9875C36.4625 64.7043 35.1601 63.1983 32.0236 63.1983C30.1928 63.1983 28.5878 63.6512 27.2828 64.2272L27.6584 65.8088C28.6861 65.4313 30.0152 65.0811 31.3195 65.0811C33.1275 65.0811 33.9046 65.8088 33.9046 67.3148V68.4434H33.0012C28.6106 68.4434 26.6294 70.1468 26.6294 72.7084C26.6294 74.9155 27.935 76.1697 30.3933 76.1697C31.9729 76.1697 33.1535 75.5175 34.2554 74.5628L34.4559 75.9185L36.4625 75.9178ZM44.9964 75.9178H41.8073L37.9685 63.4273H40.7542L43.137 71.1028L43.6667 73.4088C44.8695 70.0732 45.7221 66.6868 46.1484 63.4279H48.8579C48.1328 67.5394 46.826 72.0544 44.9964 75.9178ZM57.2325 73.0326C56.3032 73.8358 55.323 74.2874 54.4463 74.2874C53.1927 74.2874 52.5139 73.5351 52.5139 72.3303C52.5139 71.0267 53.2428 70.0719 56.1528 70.0719H57.2319L57.2325 73.0326ZM59.791 75.9178V66.9875C59.791 64.7043 58.4848 63.1983 55.3509 63.1983C53.5182 63.1983 51.9138 63.6512 50.6088 64.2272L50.985 65.8088C52.0128 65.4313 53.3437 65.0811 54.648 65.0811C56.4535 65.0811 57.2325 65.8088 57.2325 67.3148V68.4434H56.3292C51.9373 68.4434 49.9567 70.1468 49.9567 72.7084C49.9567 74.9155 51.261 76.1697 53.7186 76.1697C55.2989 76.1697 56.4776 75.5175 57.5827 74.5628L57.7845 75.9185L59.791 75.9178ZM23.8254 78.0405C23.0977 79.1057 21.919 79.9488 20.6299 80.4239L19.3681 78.9363C20.3495 78.4326 21.1901 77.6199 21.5815 76.8624C21.919 76.1881 22.0592 75.3209 22.0592 73.2458V58.9833H24.777V73.0497C24.777 75.8252 24.5562 76.9475 23.8254 78.0405Z" fill="#EA2D2E"/>
  </g>
  <defs>
    <clipPath id="clip0_11_55">
      <rect width="81.2024" height="81.2024" fill="white" transform="translate(0.14856 0.053894)"/>
    </clipPath>
  </defs>
</svg>