<svg xmlns="http://www.w3.org/2000/svg" width="76" height="76" viewBox="0 0 76 76" fill="none">
  <g clip-path="url(#clip0_11_43)">
    <path d="M0.277588 0.0534668H75.7704V75.5463H0.277588V0.0534668Z" fill="#F7DF1E"/>
    <path d="M20.1275 63.1407L25.9044 59.6444C27.0191 61.6205 28.033 63.2926 30.465 63.2926C32.7961 63.2926 34.2661 62.3808 34.2661 58.8338V34.712H41.3604V58.934C41.3604 66.2819 37.0532 69.6266 30.769 69.6266C25.0938 69.6266 21.7995 66.6874 20.1272 63.1401M45.2138 62.3805L50.9902 59.0361C52.5109 61.5194 54.4873 63.3436 57.9836 63.3436C60.9234 63.3436 62.7977 61.8738 62.7977 59.8467C62.7977 57.4144 60.8721 56.5528 57.6288 55.1343L55.8556 54.3735C50.7371 52.1951 47.342 49.4585 47.342 43.6815C47.342 38.3605 51.3959 34.3063 57.7306 34.3063C62.2407 34.3063 65.4839 35.8775 67.8147 39.9821L62.2908 43.5297C61.0744 41.3507 59.7574 40.4893 57.7303 40.4893C55.6524 40.4893 54.3349 41.8069 54.3349 43.5297C54.3349 45.6579 55.6524 46.5199 58.6928 47.8375L60.4663 48.5974C66.4969 51.1822 69.892 53.817 69.892 59.7456C69.892 66.1312 64.8752 69.6275 58.1354 69.6275C51.5478 69.6275 47.291 66.4857 45.2135 62.3808" fill="black"/>
  </g>
  <defs>
    <clipPath id="clip0_11_43">
      <rect width="75.4928" height="75.4928" fill="white" transform="translate(0.277588 0.0534668)"/>
    </clipPath>
  </defs>
</svg>