<svg xmlns="http://www.w3.org/2000/svg" width="49" height="49" viewBox="0 0 49 49" fill="none">
  <path d="M41.7929 4.08332H7.20709C6.81831 4.07792 6.43228 4.14916 6.07104 4.29297C5.70979 4.43678 5.38042 4.65034 5.10172 4.92145C4.82302 5.19257 4.60046 5.51593 4.44674 5.87307C4.29303 6.23021 4.21117 6.61413 4.20584 7.00291V41.9971C4.21117 42.3858 4.29303 42.7698 4.44674 43.1269C4.60046 43.484 4.82302 43.8074 5.10172 44.0785C5.38042 44.3496 5.70979 44.5632 6.07104 44.707C6.43228 44.8508 6.81831 44.9221 7.20709 44.9167H41.7929C42.1817 44.9221 42.5677 44.8508 42.929 44.707C43.2902 44.5632 43.6196 44.3496 43.8983 44.0785C44.177 43.8074 44.3996 43.484 44.5533 43.1269C44.707 42.7698 44.7889 42.3858 44.7942 41.9971V7.00291C44.7889 6.61413 44.707 6.23021 44.5533 5.87307C44.3996 5.51593 44.177 5.19257 43.8983 4.92145C43.6196 4.65034 43.2902 4.43678 42.929 4.29297C42.5677 4.14916 42.1817 4.07792 41.7929 4.08332ZM16.5171 38.2608H10.3921V19.8858H16.5171V38.2608ZM13.4546 17.3133C12.6099 17.3133 11.7998 16.9778 11.2025 16.3805C10.6052 15.7832 10.2696 14.973 10.2696 14.1283C10.2696 13.2836 10.6052 12.4735 11.2025 11.8762C11.7998 11.2789 12.6099 10.9433 13.4546 10.9433C13.9031 10.8925 14.3574 10.9369 14.7875 11.0738C15.2177 11.2106 15.6141 11.4368 15.9508 11.7375C16.2876 12.0381 16.557 12.4065 16.7414 12.8186C16.9259 13.2306 17.0212 13.6769 17.0212 14.1283C17.0212 14.5797 16.9259 15.0261 16.7414 15.4381C16.557 15.8501 16.2876 16.2185 15.9508 16.5192C15.6141 16.8199 15.2177 17.046 14.7875 17.1829C14.3574 17.3197 13.9031 17.3642 13.4546 17.3133ZM38.6079 38.2608H32.4829V28.3996C32.4829 25.9292 31.605 24.3162 29.3796 24.3162C28.6909 24.3213 28.0202 24.5373 27.458 24.9352C26.8959 25.3331 26.4692 25.8938 26.2354 26.5417C26.0757 27.0215 26.0064 27.5269 26.0313 28.0321V38.2404H19.9063V19.8654H26.0313V22.4583C26.5877 21.4928 27.3969 20.6974 28.3719 20.1578C29.3469 19.6181 30.4506 19.3547 31.5642 19.3958C35.6475 19.3958 38.6079 22.0296 38.6079 27.685V38.2608Z" fill="#0072C3"/>
</svg>