<svg xmlns="http://www.w3.org/2000/svg" width="38" height="38" viewBox="0 0 38 38" fill="none">
  <path d="M32.4063 3.16624H5.58837C5.28691 3.16205 4.98758 3.21729 4.70748 3.3288C4.42737 3.44031 4.17197 3.6059 3.95586 3.81612C3.73976 4.02635 3.56719 4.27708 3.44799 4.55401C3.3288 4.83093 3.26533 5.12863 3.2612 5.43008V32.5646C3.26533 32.8661 3.3288 33.1637 3.44799 33.4407C3.56719 33.7176 3.73976 33.9683 3.95586 34.1786C4.17197 34.3888 4.42737 34.5544 4.70748 34.6659C4.98758 34.7774 5.28691 34.8326 5.58837 34.8284H32.4063C32.7077 34.8326 33.0071 34.7774 33.2872 34.6659C33.5673 34.5544 33.8227 34.3888 34.0388 34.1786C34.2549 33.9683 34.4275 33.7176 34.5466 33.4407C34.6658 33.1637 34.7293 32.8661 34.7334 32.5646V5.43008C34.7293 5.12863 34.6658 4.83093 34.5466 4.55401C34.4275 4.27708 34.2549 4.02635 34.0388 3.81612C33.8227 3.6059 33.5673 3.44031 33.2872 3.3288C33.0071 3.21729 32.7077 3.16205 32.4063 3.16624ZM12.8074 29.6675H8.05803V15.4195H12.8074V29.6675ZM10.4327 13.4248C9.7777 13.4248 9.14953 13.1646 8.68638 12.7014C8.22323 12.2383 7.96304 11.6101 7.96304 10.9551C7.96304 10.3001 8.22323 9.67198 8.68638 9.20883C9.14953 8.74568 9.7777 8.48549 10.4327 8.48549C10.7805 8.44604 11.1327 8.48051 11.4663 8.58662C11.7998 8.69274 12.1072 8.86811 12.3683 9.10126C12.6294 9.33441 12.8383 9.62007 12.9813 9.93955C13.1243 10.259 13.1983 10.6051 13.1983 10.9551C13.1983 11.3052 13.1243 11.6513 12.9813 11.9707C12.8383 12.2902 12.6294 12.5759 12.3683 12.809C12.1072 13.0422 11.7998 13.2175 11.4663 13.3237C11.1327 13.4298 10.7805 13.4642 10.4327 13.4248ZM29.9366 29.6675H25.1873V22.0211C25.1873 20.1055 24.5065 18.8549 22.781 18.8549C22.2469 18.8588 21.7269 19.0263 21.291 19.3348C20.8551 19.6434 20.5242 20.0781 20.343 20.5805C20.2191 20.9525 20.1654 21.3444 20.1847 21.7361V29.6517H15.4353V15.4037H20.1847V17.4142C20.6161 16.6656 21.2436 16.0488 21.9996 15.6304C22.7556 15.2119 23.6114 15.0077 24.4749 15.0396C27.6411 15.0396 29.9366 17.0818 29.9366 21.467V29.6675Z" fill="white"/>
</svg>