<svg xmlns="http://www.w3.org/2000/svg" width="78" height="77" viewBox="0 0 78 77" fill="none">
  <g clip-path="url(#clip0_11_52)">
    <path d="M38.612 0.612915C19.2572 0.612915 20.4657 9.00631 20.4657 9.00631L20.4872 17.7021H38.9572V20.3128H13.1512C13.1512 20.3128 0.766068 18.9082 0.766068 38.4371C0.766068 57.9666 11.5761 57.274 11.5761 57.274H18.0275V48.2115C18.0275 48.2115 17.6797 37.4015 28.6651 37.4015H46.9839C46.9839 37.4015 57.276 37.5678 57.276 27.4545V10.7328C57.276 10.7328 58.8392 0.612915 38.612 0.612915ZM28.4277 6.46068C28.8642 6.46029 29.2964 6.54596 29.6997 6.71281C30.103 6.87965 30.4695 7.12439 30.7781 7.43301C31.0867 7.74163 31.3315 8.10808 31.4983 8.51139C31.6652 8.9147 31.7508 9.34695 31.7504 9.78341C31.7508 10.2199 31.6652 10.6521 31.4983 11.0554C31.3315 11.4587 31.0867 11.8252 30.7781 12.1338C30.4695 12.4424 30.103 12.6872 29.6997 12.854C29.2964 13.0209 28.8642 13.1065 28.4277 13.1061C27.9913 13.1065 27.559 13.0209 27.1557 12.854C26.7524 12.6872 26.3859 12.4424 26.0773 12.1338C25.7687 11.8252 25.524 11.4587 25.3571 11.0554C25.1903 10.6521 25.1046 10.2199 25.105 9.78341C25.1046 9.34695 25.1903 8.9147 25.3571 8.51139C25.524 8.10808 25.7687 7.74163 26.0773 7.43301C26.3859 7.12439 26.7524 6.87965 27.1557 6.71281C27.559 6.54596 27.9913 6.46029 28.4277 6.46068Z" fill="url(#paint0_linear_11_52)"/>
    <path d="M39.1616 76.4577C58.5165 76.4577 57.308 68.0643 57.308 68.0643L57.2865 59.3688H38.8162V56.7581H64.6222C64.6222 56.7581 77.0073 58.1627 77.0073 38.6332C77.0073 19.1041 66.1973 19.7967 66.1973 19.7967H59.7458V28.8588C59.7458 28.8588 60.0936 39.6689 49.1083 39.6689H30.7894C30.7894 39.6689 20.4973 39.5026 20.4973 49.6162V66.3382C20.4973 66.3382 18.9345 76.4577 39.1613 76.4577M49.3457 70.6105C48.9092 70.6109 48.477 70.5253 48.0737 70.3584C47.6703 70.1916 47.3039 69.9468 46.9953 69.6382C46.6867 69.3296 46.4419 68.9631 46.2751 68.5598C46.1082 68.1565 46.0226 67.7243 46.0229 67.2878C46.0225 66.8513 46.1082 66.419 46.275 66.0157C46.4418 65.6124 46.6865 65.2459 46.9952 64.9372C47.3038 64.6286 47.6703 64.3838 48.0736 64.2169C48.4769 64.0501 48.9092 63.9644 49.3457 63.9648C49.7821 63.9644 50.2144 64.0501 50.6177 64.2169C51.021 64.3838 51.3875 64.6285 51.6961 64.9371C52.0047 65.2457 52.2494 65.6122 52.4163 66.0155C52.5831 66.4188 52.6688 66.8511 52.6684 67.2875C52.6688 67.724 52.5831 68.1562 52.4163 68.5595C52.2494 68.9628 52.0047 69.3293 51.6961 69.6379C51.3875 69.9465 51.021 70.1913 50.6177 70.3581C50.2144 70.525 49.7821 70.6109 49.3457 70.6105Z" fill="url(#paint1_linear_11_52)"/>
  </g>
  <defs>
    <linearGradient id="paint0_linear_11_52" x1="733.442" y1="682.792" x2="4511.73" y2="4423.38" gradientUnits="userSpaceOnUse">
      <stop stop-color="#387EB8"/>
      <stop offset="1" stop-color="#366994"/>
    </linearGradient>
    <linearGradient id="paint1_linear_11_52" x1="1101.93" y1="1185.88" x2="5159.37" y2="5021.51" gradientUnits="userSpaceOnUse">
      <stop stop-color="#FFE052"/>
      <stop offset="1" stop-color="#FFC331"/>
    </linearGradient>
    <clipPath id="clip0_11_52">
      <rect width="76.4257" height="76.1272" fill="white" transform="translate(0.722809 0.591431)"/>
    </clipPath>
  </defs>
</svg>